# xmcd
#
# Track frame offsets:
#	150
#	13095
#	24732
#	35152
#	52365
#	65400
#	78847
#	91682
#	103762
#	117747
#	130702
#	142095
#	154642
#	165572
#	175002
#	187920
#	201452
#	212897
#
# Disc length: 3057
#
# Revision: 1
# Processed by: cddbd v1.5.1PL0 Copyright (c) Steve Scherf et al.
# Submitted via: ExactAudioCopy v0.90b4
# Normalized: r0:DSETVAR1,TDELIM( - )
#
DISCID=030bef12
DTITLE=Various Artist - I Love You
DYEAR=1900
DGENRE=Country
TTITLE0=Dr Hook - Sharing The Night Together
TTITLE1=Crystal Gayle - Never Ending Song Of Love
TTITLE2=Slim Whitman - Take Me In Your Arms And Hold Me
TTITLE3=Tanya Tucker - Love Me Like You Used To
TTITLE4=Billie Jo Spears - What The World Needs Now Is Love
TTITLE5=Glen Campbell - Honey Come Back
TTITLE6=Anita Carter - Loving Him Was Easier
TTITLE7=Wanda Jackson - Stand By Your Man
TTITLE8=Juice Newton - All I Have To Do Is Dream
TTITLE9=Willie Nelson - Crazy
TTITLE10=Sonny James - Young Love
TTITLE11=Faron Young - Sweet Dreams
TTITLE12=Crystal Gayle - Somebody Loves You
TTITLE13=Slim Whitman - My Blue Heaven
TTITLE14=Don Williams - You Love Me Through It All
TTITLE15=Dr Hook - When You´re In Love With A Beautiful Woman
TTITLE16=Glen Campbell - Everything A Man Could Ever Need
TTITLE17=Olivia Newton John - Love Song
EXTD=
EXTT0=
EXTT1=
EXTT2=
EXTT3=
EXTT4=
EXTT5=
EXTT6=
EXTT7=
EXTT8=
EXTT9=
EXTT10=
EXTT11=
EXTT12=
EXTT13=
EXTT14=
EXTT15=
EXTT16=
EXTT17=
PLAYORDER=
